<svg width="158" height="158" viewBox="0 0 158 158" fill="none" xmlns="http://www.w3.org/2000/svg">
<path d="M148.564 0H8.492C3.0436 0 0 5.08089 0 10.5293V151.117C0 156.565 3.0436 157.853 8.492 157.853H149.08C154.528 157.853 157.853 156.565 157.853 151.117V8.06283C157.853 2.61444 154.013 0 148.564 0ZM147.987 9.86581V32.0639H9.86581V9.86581H147.987ZM9.86581 147.987V36.9968H147.987V147.987H9.86581Z" fill="black"/>
<path d="M19.3222 24.6645H24.2551C25.619 24.6645 26.7215 23.562 26.7215 22.1981C26.7215 20.8341 25.619 19.7316 24.2551 19.7316H19.3222C17.9582 19.7316 16.8557 20.8341 16.8557 22.1981C16.8557 23.562 17.9582 24.6645 19.3222 24.6645Z" fill="black"/>
<path d="M34.1209 24.6645H39.0538C40.4177 24.6645 41.5202 23.562 41.5202 22.1981C41.5202 20.8341 40.4177 19.7316 39.0538 19.7316H34.1209C32.7569 19.7316 31.6544 20.8341 31.6544 22.1981C31.6544 23.562 32.7569 24.6645 34.1209 24.6645Z" fill="black"/>
<path d="M48.9196 24.6645H53.8525C55.2165 24.6645 56.319 23.562 56.319 22.1981C56.319 20.8341 55.2165 19.7316 53.8525 19.7316H48.9196C47.5557 19.7316 46.4532 20.8341 46.4532 22.1981C46.4532 23.562 47.5557 24.6645 48.9196 24.6645Z" fill="black"/>
<path d="M58.0257 75.212C56.9676 74.3487 55.4162 74.5091 54.5579 75.5647L39.8973 93.5279C39.1746 94.4084 39.1524 95.6737 39.8455 96.5813L54.5061 115.822C54.9895 116.458 55.7245 116.794 56.4694 116.794C56.9898 116.794 57.5152 116.631 57.9616 116.288C59.0419 115.464 59.2516 113.916 58.4253 112.833L44.9437 95.1409L58.3735 78.6823C59.2417 77.6267 59.0838 76.0728 58.0257 75.212Z" fill="black"/>
<path d="M102.962 75.6263C102.141 74.546 100.594 74.3314 99.5065 75.1626C98.4238 75.9864 98.2166 77.5353 99.0428 78.6181L112.524 96.3075L99.0946 112.769C98.2314 113.824 98.3892 115.378 99.4473 116.236C99.9061 116.611 100.456 116.794 101.004 116.794C101.719 116.794 102.429 116.483 102.915 115.886L117.576 97.9205C118.298 97.0376 118.321 95.7747 117.628 94.8671L102.962 75.6263Z" fill="black"/>
<path d="M70.6836 71.8996C70.178 70.6318 68.745 70.0202 67.4797 70.5159C66.2119 71.0191 65.5953 72.4545 66.096 73.7198L85.6204 122.847C86.0052 123.816 86.9326 124.403 87.9142 124.403C88.2176 124.403 88.5259 124.349 88.8243 124.23C90.0921 123.727 90.7087 122.292 90.208 121.026L70.6836 71.8996Z" fill="black"/>
</svg>
