<svg width="210" height="201" viewBox="0 0 210 201" fill="none" xmlns="http://www.w3.org/2000/svg">
<path d="M105.626 114.19C86.2063 115.357 59.2185 114.229 42.4725 118.522C34.5225 120.555 32.5627 124.501 31.2811 127.763L31.3061 118.629C31.3061 117.458 31.4168 116.184 33.5265 115.289C36.1361 114.186 40.7162 114.1 44.75 114.104C64.5554 114.107 86.2135 113.334 105.626 114.19Z" fill="#F8BBD0"/>
<path d="M202.679 2.2695H7.73818C4.61129 2.2695 2.07645 4.81186 2.07645 7.94803V191.856C2.07645 194.992 4.61129 197.534 7.73818 197.534H202.679C205.806 197.534 208.34 194.992 208.34 191.856V7.94803C208.34 4.81186 205.806 2.2695 202.679 2.2695Z" fill="white"/>
<path d="M209.233 10.1392V38.9007H2.97247V10.1392C2.97247 5.35581 5.50704 1.47107 8.6342 1.47107H203.571C206.698 1.47107 209.233 5.35581 209.233 10.1392Z" fill="#F8BBD0"/>
<path d="M202.432 1.9437H7.49187C4.36498 1.9437 1.83014 4.48606 1.83014 7.62222V192.941C1.83014 196.077 4.36498 198.619 7.49187 198.619H202.432C205.559 198.619 208.094 196.077 208.094 192.941V7.62222C208.094 4.48606 205.559 1.9437 202.432 1.9437Z" stroke="#333333" stroke-width="2.85585" stroke-miterlimit="10"/>
<path d="M21.2642 26.3692C23.6301 26.3692 25.548 24.4456 25.548 22.0727C25.548 19.6998 23.6301 17.7762 21.2642 17.7762C18.8984 17.7762 16.9804 19.6998 16.9804 22.0727C16.9804 24.4456 18.8984 26.3692 21.2642 26.3692Z" fill="#333333"/>
<path d="M35.1865 26.3692C37.5524 26.3692 39.4703 24.4456 39.4703 22.0727C39.4703 19.6998 37.5524 17.7762 35.1865 17.7762C32.8207 17.7762 30.9027 19.6998 30.9027 22.0727C30.9027 24.4456 32.8207 26.3692 35.1865 26.3692Z" fill="#333333"/>
<path d="M49.1088 26.3692C51.4747 26.3692 53.3926 24.4456 53.3926 22.0727C53.3926 19.6998 51.4747 17.7762 49.1088 17.7762C46.7429 17.7762 44.825 19.6998 44.825 22.0727C44.825 24.4456 46.7429 26.3692 49.1088 26.3692Z" fill="#333333"/>
<path d="M40.1236 81.0278C40.1236 76.9318 41.5229 74.6331 44.2074 74.6331C46.8919 74.6331 48.2913 76.9318 48.2913 81.0278C48.2913 85.1237 46.8919 87.4403 44.2074 87.4403C41.5229 87.4403 40.1236 85.1416 40.1236 81.0278ZM46.5921 81.0278C46.5921 77.4151 45.7175 75.9436 44.211 75.9436C42.7045 75.9436 41.8299 77.4151 41.8299 81.0278C41.8299 84.6404 42.726 86.1298 44.211 86.1298C45.696 86.1298 46.5921 84.6511 46.5921 81.0278ZM44.2074 79.8605C44.4406 79.8584 44.6692 79.926 44.8639 80.0546C45.0587 80.1832 45.2109 80.3671 45.3011 80.5827C45.3913 80.7984 45.4155 81.0361 45.3705 81.2656C45.3255 81.4951 45.2135 81.706 45.0486 81.8714C44.8837 82.0368 44.6734 82.1492 44.4446 82.1943C44.2158 82.2394 43.9788 82.2152 43.7637 82.1247C43.5487 82.0342 43.3654 81.8816 43.2371 81.6862C43.1089 81.4909 43.0416 81.2616 43.0437 81.0278C43.0427 80.8742 43.0722 80.722 43.1303 80.58C43.1885 80.4379 43.2742 80.3089 43.3824 80.2003C43.4907 80.0917 43.6193 80.0058 43.761 79.9475C43.9026 79.8891 44.0543 79.8596 44.2074 79.8605Z" fill="#333333"/>
<path d="M54.8919 76.6632L51.9361 78.4535L51.1472 77.3041L55.074 74.8408H56.5233V85.89H59.0472V87.2219H51.8683V85.89H54.8955V76.6632H54.8919Z" fill="#333333"/>
<path d="M79.4915 76.52L80.2804 77.7588L74.0118 81.6042L80.2804 85.4639L79.4201 86.6705L72.591 82.3955V80.7986L79.4915 76.52Z" fill="#333333"/>
<path d="M89.4085 87.2255V81.4288H84.9283V87.229H83.2291V74.8516H84.9283V80.0253H89.4049V74.8516H91.1041V87.229L89.4085 87.2255Z" fill="#333333"/>
<path d="M98.7292 76.2873V87.229H97.03V76.2873H93.2174V74.8551H102.602L102.424 76.2873H98.7292Z" fill="#333333"/>
<path d="M111.891 87.2255L111.534 80.8845C111.445 79.1409 111.445 77.1323 111.463 76.7349H111.406L109.439 85.0092H107.807L105.765 76.7277H105.694C105.694 77.1394 105.73 79.2805 105.658 80.8774L105.355 87.2183H103.781L104.494 74.8408H106.751L108.65 83.1044H108.721L110.531 74.8408H112.805L113.519 87.2183L111.891 87.2255Z" fill="#333333"/>
<path d="M116.361 87.2255V74.8516H118.06V85.7253H123.664L123.468 87.2147L116.361 87.2255Z" fill="#333333"/>
<path d="M133.981 80.795V82.3919L127.156 86.6669L126.295 85.4603L132.564 81.6006L126.295 77.7553L127.084 76.5164L133.981 80.795Z" fill="#333333"/>
<path d="M40.1236 102.575C40.1236 98.4787 41.5229 96.1801 44.2074 96.1801C46.8919 96.1801 48.2913 98.4787 48.2913 102.575C48.2913 106.671 46.8919 108.998 44.2074 108.998C41.5229 108.998 40.1236 106.685 40.1236 102.575ZM46.5921 102.575C46.5921 98.962 45.7175 97.4905 44.211 97.4905C42.7045 97.4905 41.8299 98.962 41.8299 102.575C41.8299 106.187 42.726 107.677 44.211 107.677C45.696 107.677 46.5921 106.202 46.5921 102.575ZM44.2074 101.407C44.4406 101.405 44.6692 101.473 44.8639 101.601C45.0587 101.73 45.2109 101.914 45.3011 102.13C45.3913 102.345 45.4155 102.583 45.3705 102.813C45.3255 103.042 45.2135 103.253 45.0486 103.418C44.8837 103.584 44.6734 103.696 44.4446 103.741C44.2158 103.786 43.9788 103.762 43.7637 103.672C43.5487 103.581 43.3654 103.428 43.2371 103.233C43.1089 103.038 43.0416 102.809 43.0437 102.575C43.0422 102.421 43.0714 102.268 43.1293 102.126C43.1872 101.983 43.2728 101.854 43.3811 101.745C43.4894 101.636 43.6183 101.55 43.7601 101.491C43.902 101.433 44.054 101.403 44.2074 101.404V101.407Z" fill="#333333"/>
<path d="M52.9963 107.387H58.6009L58.4046 108.769H51.0615V107.458C55.3239 103.219 56.634 101.511 56.634 99.6423C56.6515 99.3626 56.6091 99.0823 56.5098 98.8203C56.4104 98.5583 56.2563 98.3207 56.0579 98.1233C55.8594 97.926 55.6212 97.7735 55.3591 97.6761C55.097 97.5787 54.8173 97.5386 54.5385 97.5585C53.5175 97.5585 52.8178 97.9381 52.0646 98.8869L50.9187 98.0777C51.8861 96.8747 53.1034 96.1729 54.6277 96.1729C56.8839 96.1729 58.3368 97.6051 58.3368 99.5886C58.3332 101.748 56.6304 103.903 52.9963 107.387Z" fill="#333333"/>
<path d="M79.4915 98.0634L80.2804 99.3022L74.0118 103.148L80.2804 107.007L79.4201 108.214L72.5946 103.939V102.338L79.4915 98.0634Z" fill="#333333"/>
<path d="M86.8453 108.772H83.4433V96.3949H86.5919C88.7945 96.3949 91.0006 97.111 91.0006 99.5206C91.0137 100.144 90.8055 100.752 90.4132 101.236C90.0209 101.72 89.47 102.048 88.8587 102.163V102.235C90.0939 102.467 91.5468 103.187 91.5468 105.235C91.5182 107.945 89.155 108.772 86.8453 108.772ZM86.881 97.7411H85.1425V101.619H87.0238C88.4517 101.619 89.2478 101.024 89.2478 99.6244C89.2478 98.2245 88.3518 97.7411 86.881 97.7411ZM87.1488 102.986H85.1425V107.39H87.0774C88.2804 107.39 89.7298 107.032 89.7298 105.271C89.7298 103.509 88.566 102.986 87.1488 102.986Z" fill="#333333"/>
<path d="M97.9082 108.998C94.881 108.998 93.3245 106.467 93.3245 102.621C93.3245 98.851 94.881 96.1765 97.9082 96.1765C100.935 96.1765 102.492 98.7472 102.492 102.589C102.495 106.363 100.932 108.998 97.9082 108.998ZM97.9082 97.5907C95.9019 97.5907 95.0952 99.3523 95.0952 102.603C95.0952 105.854 95.9555 107.58 97.9082 107.58C99.9144 107.58 100.718 105.854 100.718 102.568C100.718 99.2807 99.9144 97.5764 97.9082 97.5764V97.5907Z" fill="#333333"/>
<path d="M107.59 108.772H104.705V96.3949H107.393C110.313 96.3949 113.212 97.3831 113.212 102.521C113.212 107.659 110.206 108.772 107.59 108.772ZM107.772 97.7626H106.411V107.43H107.789C109.546 107.43 111.406 106.531 111.406 102.528C111.406 98.3175 109.439 97.759 107.772 97.759V97.7626Z" fill="#333333"/>
<path d="M120.248 104.01V108.772H118.527V104.028L114.372 96.3913H116.253L119.409 102.442H119.466L122.636 96.3913H124.421L120.248 104.01Z" fill="#333333"/>
<path d="M133.981 102.338V103.935L127.156 108.21L126.295 107.004L132.564 103.144L126.295 99.2986L127.084 98.0598L133.981 102.338Z" fill="#333333"/>
<path d="M40.1236 124.118C40.1236 120.022 41.5229 117.723 44.2074 117.723C46.8919 117.723 48.2913 120.022 48.2913 124.118C48.2913 128.214 46.8919 130.531 44.2074 130.531C41.5229 130.531 40.1236 128.232 40.1236 124.118ZM46.5921 124.118C46.5921 120.505 45.7175 119.034 44.211 119.034C42.7045 119.034 41.8299 120.505 41.8299 124.118C41.8299 127.731 42.726 129.22 44.211 129.22C45.696 129.22 46.5921 127.745 46.5921 124.118ZM44.2074 122.962C44.4406 122.959 44.6692 123.027 44.8639 123.156C45.0587 123.284 45.2109 123.468 45.3011 123.684C45.3913 123.899 45.4155 124.137 45.3705 124.367C45.3255 124.596 45.2135 124.807 45.0486 124.972C44.8837 125.138 44.6734 125.25 44.4446 125.295C44.2158 125.34 43.9788 125.316 43.7637 125.226C43.5487 125.135 43.3654 124.983 43.2371 124.787C43.1089 124.592 43.0416 124.363 43.0437 124.129C43.0427 123.975 43.0722 123.823 43.1303 123.681C43.1885 123.539 43.2742 123.41 43.3824 123.301C43.4907 123.193 43.6193 123.107 43.761 123.048C43.9026 122.99 44.0543 122.961 44.2074 122.962Z" fill="#333333"/>
<path d="M54.4635 130.531C53.7393 130.553 53.0191 130.415 52.354 130.126C51.6889 129.838 51.0953 129.406 50.6152 128.862L51.6862 127.963C52.024 128.353 52.4424 128.664 52.9121 128.874C53.3819 129.085 53.8918 129.191 54.4064 129.184C56.0699 129.184 57.0766 128.25 57.0766 126.739C57.0766 125.013 56.0057 124.44 54.5777 124.44H53.6282L53.8245 123.166H54.4635C55.6451 123.166 56.7553 122.503 56.7553 121.064C56.7553 119.75 55.7522 119.03 54.4813 119.03C53.4104 119.03 52.6964 119.41 51.8861 120.162L50.9901 119.173C51.9416 118.234 53.2248 117.71 54.5599 117.716C56.9231 117.716 58.3939 119.148 58.3939 120.824C58.3949 121.5 58.1615 122.156 57.7336 122.678C57.3058 123.201 56.71 123.558 56.0485 123.688V123.76C56.8077 123.796 57.5218 124.132 58.0354 124.694C58.5489 125.256 58.8202 125.999 58.7901 126.76C58.7973 128.894 57.0588 130.531 54.4635 130.531Z" fill="#333333"/>
<path d="M79.4915 119.607L80.2804 120.846L74.0118 124.691L80.2804 128.551L79.4165 129.764L72.591 125.468V123.871L79.4915 119.607Z" fill="#333333"/>
<path d="M89.4085 130.316V124.515H84.9283V130.316H83.2291V117.949H84.9283V123.123H89.4049V117.949H91.1041V130.326H89.4049L89.4085 130.316Z" fill="#333333"/>
<path d="M96.2304 119.299V123.341H100.778V124.705H96.2304V128.962H101.803V130.309H94.5418V117.949H101.681L101.485 119.313L96.2304 119.299Z" fill="#333333"/>
<path d="M110.977 127.208H106.226L105.276 130.316H103.577L107.572 117.949H109.714L113.722 130.316H111.938L110.977 127.208ZM106.644 125.826H110.57L108.653 119.485H108.582L106.644 125.826Z" fill="#333333"/>
<path d="M118.331 130.316H115.447V117.949H118.135C121.055 117.949 123.954 118.937 123.954 124.075C123.954 129.213 120.944 130.316 118.331 130.316ZM118.51 119.302H117.149V128.969H118.527C120.284 128.969 122.144 128.071 122.144 124.068C122.147 119.861 120.195 119.299 118.51 119.299V119.302Z" fill="#333333"/>
<path d="M128.462 119.299V123.341H132.999V124.705H128.462V128.962H134.035V130.309H126.763V117.949H133.903L133.706 119.313L128.462 119.299Z" fill="#333333"/>
<path d="M142.213 124.856L145.829 130.316H143.805L140.496 125.07H138.922V130.316H137.223V117.949H140.464C143.545 117.949 145.155 119.13 145.155 121.451C145.165 123.291 143.877 124.422 142.213 124.856ZM140.635 119.267H138.936V123.756H140.657C142.377 123.756 143.359 123.112 143.359 121.44C143.352 119.893 142.477 119.267 140.632 119.267H140.635Z" fill="#333333"/>
<path d="M155.461 123.885V125.468L148.635 129.764L147.775 128.558L154.044 124.698L147.775 120.853L148.564 119.614L155.461 123.885Z" fill="#333333"/>
<path d="M40.1236 145.661C40.1236 141.565 41.5229 139.267 44.2074 139.267C46.8919 139.267 48.2877 141.58 48.2877 145.661C48.2877 149.743 46.8884 152.074 44.2039 152.074C41.5194 152.074 40.1236 149.775 40.1236 145.661ZM46.5921 145.661C46.5921 142.049 45.7175 140.577 44.211 140.577C42.7045 140.577 41.8299 142.049 41.8299 145.661C41.8299 149.274 42.726 150.763 44.211 150.763C45.696 150.763 46.5921 149.288 46.5921 145.661ZM44.2074 144.494C44.4405 144.493 44.6687 144.561 44.863 144.69C45.0573 144.819 45.2089 145.003 45.2986 145.219C45.3882 145.435 45.4119 145.672 45.3665 145.901C45.3211 146.131 45.2088 146.341 45.0437 146.506C44.8787 146.671 44.6684 146.783 44.4397 146.828C44.211 146.873 43.9741 146.848 43.7593 146.758C43.5445 146.667 43.3614 146.515 43.2333 146.319C43.1052 146.124 43.038 145.895 43.0401 145.661C43.0392 145.507 43.0687 145.355 43.1271 145.213C43.1855 145.07 43.2715 144.941 43.3801 144.833C43.4887 144.724 43.6178 144.638 43.7599 144.58C43.9019 144.522 44.054 144.493 44.2074 144.494Z" fill="#333333"/>
<path d="M57.455 148.894V151.859H55.8629V148.894H50.8116V147.727L54.4278 139.263L55.8058 139.84L52.5429 147.584H55.8557L56.0199 144.362H57.4479V147.584H59.0043V148.898L57.455 148.894Z" fill="#333333"/>
<path d="M79.4915 141.15L80.2804 142.389L74.0118 146.234L80.2804 150.094L79.4201 151.3L72.5946 147.025V145.429L79.4915 141.15Z" fill="#333333"/>
<path d="M84.018 153.728L82.6901 153.134L90.3366 137.308L91.6467 137.938L84.018 153.728Z" fill="#333333"/>
<path d="M100.157 151.859V146.059H95.6663V151.859H93.9671V139.482H95.6663V144.655H100.157V139.482H101.856V151.859H100.157Z" fill="#333333"/>
<path d="M106.983 140.864V144.906H111.531V146.27H106.983V150.527H112.555V151.873H105.283V139.482H112.423L112.227 140.846L106.983 140.864Z" fill="#333333"/>
<path d="M121.715 148.74H116.967L116.018 151.848H114.319L118.313 139.471H120.455L124.45 151.848H122.665L121.715 148.74ZM117.382 147.358H121.308L119.391 141.018H119.316L117.382 147.358Z" fill="#333333"/>
<path d="M129.073 151.859H126.188V139.482H128.876C131.796 139.482 134.695 140.47 134.695 145.608C134.695 150.745 131.689 151.859 129.073 151.859ZM129.251 140.864H127.891V150.531H129.269C131.025 150.531 132.885 149.632 132.885 145.629C132.885 141.404 130.933 140.864 129.251 140.864Z" fill="#333333"/>
<path d="M139.2 140.864V144.906H143.748V146.27H139.2V150.527H144.78V151.873H137.501V139.482H144.641L144.423 140.864H139.2Z" fill="#333333"/>
<path d="M152.951 146.395L156.56 151.859H154.536L151.241 146.614H149.663V151.859H147.964V139.482H151.206C154.286 139.482 155.896 140.663 155.896 142.983C155.907 144.834 154.618 145.966 152.951 146.395ZM151.377 140.81H149.678V145.303H151.398C153.119 145.303 154.101 144.659 154.101 142.987C154.097 141.44 153.219 140.81 151.373 140.81H151.377Z" fill="#333333"/>
<path d="M166.199 145.429V147.025L159.373 151.3L158.513 150.094L164.771 146.234L158.502 142.389L159.291 141.15L166.199 145.429Z" fill="#333333"/>
</svg>
