<svg width="77" height="76" viewBox="0 0 77 76" fill="none" xmlns="http://www.w3.org/2000/svg">
<path d="M34.3256 48.4077C38.6979 55.1361 37.1977 67.1952 37.1977 72.016" stroke="black" stroke-opacity="0.9" stroke-width="5" stroke-linecap="round" stroke-linejoin="round"/>
<path d="M45.9158 43.0627C49.5791 50.8245 48.9589 59.553 47.1437 67.5614" stroke="black" stroke-opacity="0.9" stroke-width="5" stroke-linecap="round" stroke-linejoin="round"/>
<path d="M20.5913 58.949C30.2992 44.2818 50.4933 30.754 67.989 41.7092C70.1682 43.0734 73.2977 45.7185 73.8299 48.3395C76.6672 62.3011 43.2929 80.2186 27.1055 70.6631C25.93 69.9684 19.8769 62.3289 19.2441 62.4849C17.2236 62.9823 11.2954 65.2219 9.8094 66.6839C9.66836 66.8227 15.7835 64.6947 21.2658 64.6947" stroke="#F7F7F7" stroke-opacity="0.9" stroke-width="5" stroke-linecap="round" stroke-linejoin="round"/>
<path d="M63.8292 52.9644C63.8668 53.1972 63.715 53.4214 63.6581 53.6504" stroke="#F7F7F7" stroke-opacity="0.9" stroke-width="5" stroke-linecap="round" stroke-linejoin="round"/>
<path d="M41.8694 33.8376C42.7716 27.3104 67.5 27.9999 66.5 17.5C65.9286 11.5 54.6306 16.5 49.5 22C46.2351 25.5 40.9258 36.4488 39.613 33.8376C32.8471 33.4999 26.5 33.8845 22.4999 34.4999C-3.5 38.4999 0.327242 65.8053 24 44.4999C29 39.9999 33.2463 35.2877 38 34.4999" stroke="#F7F7F7" stroke-opacity="0.9" stroke-width="5" stroke-linecap="round" stroke-linejoin="round"/>
</svg>
