<svg width="158" height="158" viewBox="0 0 158 158" fill="none" xmlns="http://www.w3.org/2000/svg">
<path d="M15.037 0L11.6536 3.19536L3.19536 11.6536L0 15.037L2.44351 18.9842L15.037 40.0359L16.7286 43.0433H34.3971L58.4562 66.9145C36.958 88.5066 9.60956 115.949 8.64626 116.912C-0.775342 126.334 -0.798836 141.77 8.83422 150.746C18.2323 160.026 33.5512 160.261 42.4794 150.746L42.6674 150.558L79.6959 113.341L116.912 150.746L117.476 151.122C126.921 160.026 141.935 160.144 150.746 150.746V150.558H150.934C160.144 141.136 160.238 125.817 150.746 116.912L150.558 116.724L119.168 85.5227C140.29 83.5491 156.831 65.7162 157.136 44.1711H157.324C157.348 44.0536 157.324 43.9126 157.324 43.7952C157.324 43.7247 157.324 43.6777 157.324 43.6072C157.912 36.6526 156.408 30.0034 152.813 24.2471L148.678 17.8564L120.672 45.8627L112.213 37.0285L140.784 8.45829L132.513 5.07498C127.673 3.00739 122.081 1.5037 115.785 1.5037C92.6653 1.5037 73.6811 20.4879 73.6811 43.6072C73.6811 46.1212 74.2215 48.3063 74.6209 50.5618C71.9895 53.1933 70.0159 55.3548 66.9145 58.4562L43.0433 34.585V16.7286L40.0359 15.037L18.9842 2.44351L15.037 0ZM115.785 13.5333C116.63 13.5333 117.218 14.0267 118.04 14.0972L95.2968 36.8406L99.4319 41.1637L116.349 58.6442L120.484 62.9673L144.355 39.0961C144.472 40.4823 145.459 41.4926 145.295 43.0433V43.6072C145.295 60.1714 131.785 73.6811 115.221 73.6811C113.012 73.6811 110.334 73.1642 107.326 72.5534L104.131 71.9895L101.875 74.245L34.0211 142.287H33.8332V142.475C29.557 147.151 22.0855 147.268 17.1045 142.287V142.099H16.9166C12.241 137.823 12.1236 130.352 17.1045 125.371C19.3836 123.092 63.5312 78.5681 85.1468 56.9525L87.5903 54.509L86.6505 51.1257C86.1571 49.1756 85.7107 45.8158 85.7107 43.6072C85.7107 27.043 99.2205 13.5333 115.785 13.5333ZM16.9166 15.037L31.0137 23.6832V29.698L29.698 31.0137H23.6832L15.037 16.9166L16.9166 15.037ZM104.883 88.1542L142.287 125.371V125.559H142.475C147.151 129.835 147.268 137.306 142.287 142.287H142.099V142.475C137.823 147.151 130.352 147.268 125.371 142.287L88.1542 104.883L104.883 88.1542Z" fill="black"/>
</svg>
